<?xml version="1.0" encoding="UTF-8" standalone="no"?>
<!-- Created with Inkscape (http://www.inkscape.org/) -->

<svg
   version="1.1"
   id="svg1"
   width="73.55658"
   height="78.527252"
   viewBox="0 0 73.55658 78.527253"
   sodipodi:docname="culture.svg"
   inkscape:export-filename="layer.svg"
   inkscape:export-xdpi="96"
   inkscape:export-ydpi="96"
   xml:space="preserve"
   inkscape:version="1.3.2 (1:1.3.2+202311252150+091e20ef0f)"
   xmlns:inkscape="http://www.inkscape.org/namespaces/inkscape"
   xmlns:sodipodi="http://sodipodi.sourceforge.net/DTD/sodipodi-0.dtd"
   xmlns="http://www.w3.org/2000/svg"
   xmlns:svg="http://www.w3.org/2000/svg"><defs
     id="defs1" /><sodipodi:namedview
     id="namedview1"
     pagecolor="#ffffff"
     bordercolor="#000000"
     borderopacity="0.25"
     inkscape:showpageshadow="2"
     inkscape:pageopacity="0.0"
     inkscape:pagecheckerboard="0"
     inkscape:deskcolor="#d1d1d1"
     showgrid="false"
     inkscape:zoom="4.0737031"
     inkscape:cx="66.156023"
     inkscape:cy="80.761898"
     inkscape:window-width="1870"
     inkscape:window-height="1011"
     inkscape:window-x="50"
     inkscape:window-y="32"
     inkscape:window-maximized="1"
     inkscape:current-layer="g1" /><g
     inkscape:groupmode="layer"
     inkscape:label="Image"
     id="g1"
     transform="translate(172.56576,69.045319)"><path
       style="fill:#a13636;fill-opacity:1;fill-rule:evenodd;stroke-width:3.77953"
       d="m 49.046023,46.486723 c -1.731755,0.224919 -3.330175,1.63855 -5.11075,1.145849 -2.439384,-0.549672 -4.978975,-1.284412 -7.4784,-0.634393 -3.547146,0.878385 -7.038708,1.988206 -10.678758,2.481234 -0.796347,-0.02728 -1.478846,0.633316 -1.327612,1.446896 -0.05241,3.256829 -0.214155,6.483357 -0.422857,9.701488 -0.0051,0.833181 0.994546,1.186164 1.655036,0.816454 1.333311,-0.422595 2.36376,-1.419797 3.615454,-1.991604 2.252991,-0.575685 4.708549,-0.299068 6.850308,-1.336471 0.976526,-0.554754 2.053408,-0.90392 3.184771,-0.904963 1.834823,-0.0939 3.667778,-0.247392 5.464729,-0.640104 1.544572,-0.290062 3.202998,-0.128916 4.661603,-0.778691 1.247487,-0.64366 1.178754,-2.227123 1.147191,-3.424388 -0.08292,-1.702671 -0.05728,-3.434193 -0.387206,-5.109382 -0.1674,-0.483735 -0.665025,-0.803204 -1.173509,-0.771925 z"
       id="path2" /><path
       style="fill:#c35c5c;fill-opacity:1;fill-rule:evenodd;stroke-width:3.77953"
       d="m 48.691004,40.620565 c -1.629509,0.595942 -3.137284,1.469521 -4.553347,2.464232 -1.842668,-0.605514 -3.689796,-1.671476 -5.698797,-1.310224 -4.39955,0.457272 -8.888319,0.666161 -13.256124,1.486744 -1.045695,0.298937 -0.6989,1.560203 -0.753563,2.373481 0.06371,1.005316 -0.141113,2.079739 0.22925,3.035963 0.652216,0.878285 1.78421,0.261114 2.652288,0.189449 2.295495,-0.402364 4.580041,-0.881193 6.777759,-1.671092 1.499716,-0.49033 3.023633,-1.09035 4.634917,-0.917104 2.393148,0.0757 4.733879,1.188582 7.141203,0.748629 1.261387,-0.43638 2.458714,-1.125828 3.491078,-1.969316 0.866646,-0.970996 0.69716,-2.400697 0.685705,-3.597574 -0.04259,-0.650259 -0.756095,-1.054116 -1.350369,-0.833188 z"
       id="path3" /><path
       style="fill:#e99090;fill-opacity:1;fill-rule:evenodd;stroke-width:3.77953"
       d="m 48.071116,24.519575 c -1.341034,0.184879 -2.381678,1.183056 -3.524404,1.831558 -0.741306,0.414124 -1.37714,1.158802 -2.301434,0.999433 -5.207793,0.267444 -10.449133,0.322365 -15.608783,1.14565 -0.784808,0.196347 -2.012385,0.105305 -2.186435,1.120566 -0.04876,4.071743 -0.0069,8.151019 -0.02089,12.22565 0.02301,0.79467 0.90082,1.180449 1.58007,0.90048 4.304602,-0.52502 8.625789,-0.941972 12.941845,-1.453504 1.025606,-0.161228 2.053932,0.02254 2.982034,0.476607 1.788931,0.734304 3.633046,-0.208375 5.209454,-1.022269 0.774687,-0.495694 1.81282,-0.710569 2.369353,-1.459319 0.285833,-1.065761 0.122901,-2.209194 0.211623,-3.307342 0.02069,-3.280711 0.09589,-6.569062 -0.08928,-9.845202 -0.0789,-0.799259 -0.68835,-1.649565 -1.563153,-1.612308 z"
       id="path4" /><path
       style="fill:#ffcbcb;fill-opacity:1;fill-rule:evenodd;stroke-width:3.77953"
       d="m 48.563643,9.598265 c -3.299472,2.44361 -7.384715,3.452063 -11.273933,4.457158 -4.076877,1.031312 -8.361818,1.617567 -12.114434,3.604878 -0.763045,0.589048 -0.323617,1.694893 -0.440437,2.521246 0.01774,2.345343 -0.03541,4.70004 0.02643,7.039565 0.07071,0.879172 1.089003,1.010619 1.780519,0.827574 5.432577,-0.546031 10.924498,-0.793111 16.377078,-1.221841 1.276237,-0.538531 2.323254,-1.533235 3.581933,-2.132547 1.017463,-0.593058 2.245391,-0.654495 3.267003,-1.203162 0.572041,-0.792691 0.18782,-1.841965 0.299496,-2.75139 -0.01772,-3.457497 0.03535,-6.924335 -0.02643,-10.376019 -0.05675,-0.715438 -0.860799,-1.086195 -1.477225,-0.765462 z"
       id="path5" /><path
       style="fill:#000000"
       d="m 22.195191,75.253478 c 0,-0.591819 0.130214,-1.124034 0.289366,-1.182701 0.166719,-0.06146 0.442958,-14.144462 0.651742,-33.226668 0.199307,-18.216001 0.43837,-33.602673 0.531251,-34.192605 0.163346,-1.037495 0.207477,-1.066254 1.348257,-0.878621 3.662542,0.602406 8.595954,0.856727 16.909551,0.8717 8.426065,0.01517 9.341408,0.06829 9.44617,0.548164 0.0638,0.292248 -0.0086,6.867361 -0.160836,14.611361 -0.213925,10.880178 -0.178966,15.498104 0.153829,20.320001 0.434446,6.29473 0.616948,32.396631 0.230895,33.023307 -0.440604,0.715228 -3.890248,0.938191 -16.360226,1.057419 l -13.039999,0.124678 z m 5.648151,-16.06779 c 0.944447,-0.720366 1.568365,-0.890793 3.898133,-1.064802 2.089772,-0.156084 3.185347,-0.417945 4.443077,-1.061972 1.325188,-0.678569 2.117321,-0.854805 3.842113,-0.854805 1.195013,0 2.673316,-0.14356 3.285119,-0.319023 0.611802,-0.175462 2.010263,-0.38394 3.10769,-0.463284 3.3897,-0.245074 3.419631,-0.286259 3.202274,-4.406415 -0.102043,-1.934306 -0.242525,-3.573911 -0.312181,-3.643568 -0.06966,-0.06966 -1.043078,0.245731 -2.163159,0.70086 -2.015835,0.819108 -2.057805,0.822367 -4.133865,0.321093 -4.234937,-1.022545 -4.809893,-1.007867 -9.052201,0.231088 -2.158833,0.630482 -4.969151,1.310748 -6.245151,1.511703 l -2.32,0.365371 -0.0015,1.491088 c -8e-4,0.820098 -0.09508,3.115995 -0.209516,5.101993 l -0.208061,3.610906 0.871383,-0.331299 c 0.479261,-0.182215 1.377371,-0.717235 1.995801,-1.188934 z m 1.292463,-11.621644 c 1.089337,-0.187587 2.817337,-0.632306 3.84,-0.988266 4.367283,-1.520127 4.924484,-1.582526 8.163348,-0.914184 3.915413,0.807948 4.203238,0.791237 6.217085,-0.36097 1.672834,-0.957099 1.718952,-1.021604 1.718952,-2.404295 V 41.47552 l -1.2,0.499101 c -0.66,0.274506 -1.741205,0.872858 -2.402677,1.329671 l -1.202678,0.830569 -2.276059,-0.840321 c -1.251833,-0.462176 -2.375108,-0.779105 -2.496167,-0.704286 -0.12106,0.07482 -2.227628,0.286997 -4.681263,0.471507 -2.453636,0.18451 -5.577155,0.505935 -6.941155,0.714277 l -2.48,0.378803 v 2.05006 2.050059 l 0.88,-0.174924 c 0.484,-0.09621 1.771276,-0.328405 2.860614,-0.515992 z m 2.339386,-6.388826 c 2.023999,-0.198003 4.873481,-0.52156 6.33218,-0.719017 2.307333,-0.312331 2.797635,-0.289649 3.770856,0.174448 1.630635,0.777596 2.507342,0.668001 4.958003,-0.619785 l 2.194629,-1.153245 0.09217,-6.687064 c 0.108027,-7.837864 0.223609,-7.656249 -3.370283,-5.295772 l -2.117341,1.390675 -5.48475,0.222648 c -5.07868,0.206163 -9.443028,0.593651 -11.575464,1.027723 l -0.88,0.179131 v 6.089584 6.089585 l 1.2,-0.169453 c 0.66,-0.0932 2.856,-0.331455 4.88,-0.529458 z m 5.119999,-14.865156 6.24,-0.400445 1.720443,-1.178331 c 0.946244,-0.648082 2.350244,-1.336916 3.12,-1.530743 L 49.07519,22.84813 v -6.241042 -6.241043 l -0.72,0.518718 c -2.545829,1.834121 -6.880909,3.30534 -14.620791,4.961934 -2.502738,0.53567 -5.330908,1.331259 -6.284821,1.767975 l -1.734387,0.794029 v 4.383655 4.383656 l 2.32,-0.232753 c 1.276,-0.128014 5.128,-0.412953 8.559999,-0.633197 z M 27.516423,15.087503 c 0.627372,-0.262133 2.962747,-0.85161 5.189722,-1.30995 C 40.032873,12.269621 45.978471,10.291424 46.701864,9.120949 46.87521,8.840469 46.402769,8.80003 44.832349,8.960924 42.865101,9.162474 28.530272,8.697469 26.595191,8.369332 l -0.88,-0.149225 v 3.672001 c 0,2.310846 0.122429,3.672 0.330278,3.672 0.181652,0 0.843582,-0.214473 1.470954,-0.476605 z m 28.669969,55.338462 c -0.391161,-0.27398 -0.711202,-0.762574 -0.711202,-1.085764 0,-0.803236 0.933921,-1.098884 1.591475,-0.503806 0.729652,0.660326 1.36247,0.61337 2.36537,-0.175511 1.019813,-0.802185 1.113816,-2.133807 0.227401,-3.221323 l -0.615754,-0.755451 -1.126731,0.600958 c -1.72309,0.919035 -1.993886,0.627181 -2.22737,-2.400571 -0.112726,-1.461802 -0.09706,-2.765716 0.03481,-2.897586 0.13187,-0.131871 1.821747,-0.280948 3.755282,-0.331283 3.46887,-0.0903 3.515519,-0.08188 3.515519,0.635189 0,0.691902 -0.134752,0.732142 -2.813533,0.8402 -1.547444,0.06242 -2.862376,0.167403 -2.922072,0.233293 -0.0597,0.06589 -0.03615,0.595406 0.05233,1.176703 0.148113,0.973074 0.233368,1.040981 1.074881,0.856154 1.425604,-0.313115 2.216084,0.115839 2.870853,1.557867 0.728679,1.604805 0.774402,2.817515 0.151633,4.021817 -0.866272,1.675187 -3.755604,2.476844 -5.222894,1.449114 z m 2.488798,-15.22399 v -1.322134 l -1.300664,0.174456 c -1.492894,0.200239 -1.451411,0.266008 -1.722051,-2.730188 -0.191803,-2.123403 -0.182036,-2.16 0.576481,-2.16 0.819499,0 1.153658,0.667246 1.161865,2.32 0.0035,0.710608 0.149989,0.88 0.760869,0.88 0.667333,0 0.752198,-0.141441 0.72,-1.2 -0.03085,-1.014158 0.075,-1.215836 0.6835,-1.302256 0.539485,-0.07662 0.72,0.05722 0.72,0.533828 0,1.301551 0.348575,1.648428 1.656493,1.648428 1.131948,0 1.257046,0.07726 1.165763,0.72 -0.08011,0.564071 -0.344208,0.742964 -1.21946,0.826033 -1.300375,0.123418 -1.591178,0.468103 -1.597896,1.893967 -0.0042,0.894694 -0.116674,1.04 -0.8049,1.04 -0.724249,0 -0.8,-0.125191 -0.8,-1.322134 z m -1.191984,-7.978031 c -1.475121,-0.308357 -2.736795,-1.206916 -2.513112,-1.789827 0.101803,-0.265294 0.185096,-0.542575 0.185096,-0.61618 0,-0.35488 1.250937,-0.07442 1.61279,0.361583 0.287393,0.346288 0.853042,0.466691 1.879182,0.4 1.330861,-0.0865 1.477388,-0.176592 1.568206,-0.96425 0.104004,-0.902018 -0.1561,-1.054916 -2.180178,-1.281576 -1.221258,-0.136758 -1.284675,-1.584934 -0.09561,-2.183394 0.885101,-0.445475 0.873079,-0.452733 -1.024388,-0.618478 -1.650762,-0.144195 -1.92,-0.257459 -1.92,-0.807713 0,-0.564211 0.246316,-0.651718 2.08,-0.738948 3.03214,-0.144242 4.16,0.125921 4.16,0.996473 0,0.389689 -0.296344,0.893595 -0.658542,1.119791 -0.647917,0.404631 -0.642754,0.426016 0.32,1.325363 0.768496,0.717883 0.978542,1.182507 0.978542,2.164547 0,0.687748 -0.188534,1.508287 -0.418965,1.823419 -0.504446,0.689872 -2.550396,1.106573 -3.973019,0.80919 z M 54.19519,35.755372 c 0,-0.379794 0.785097,-1.616 1.744659,-2.747124 0.959562,-1.131124 1.977981,-2.507785 2.263153,-3.059247 0.965424,-1.866924 -0.214237,-2.593312 -1.778198,-1.094942 -0.933154,0.894018 -1.909614,0.795509 -1.909614,-0.192651 0,-0.776485 2.137101,-2.2173 3.288829,-2.2173 1.141339,0 2.471171,1.295026 2.471171,2.406492 0,1.015688 -0.406826,1.834855 -1.744925,3.513508 -1.688708,2.118494 -1.711424,2.064255 0.777143,1.855623 2.23418,-0.187306 2.247782,-0.183608 2.247782,0.61101 0,0.763395 -0.10808,0.808593 -2.396025,1.001995 -1.317814,0.111396 -2.973814,0.29493 -3.68,0.407854 -1.165393,0.186354 -1.283975,0.141541 -1.283975,-0.485218 z m 3.2,-19.614038 v -3.262773 l -1.129743,1.09499 c -0.898698,0.871053 -1.238383,1.026464 -1.660954,0.759912 -0.292166,-0.184293 -0.577686,-0.474504 -0.634489,-0.644914 -0.15776,-0.473281 4.272678,-3.987529 4.78113,-3.792417 0.350647,0.134556 0.423105,0.92506 0.344565,3.759181 -0.0547,1.973837 -0.09969,3.984795 -0.09998,4.468795 -4.34e-4,0.725193 -0.141261,0.88 -0.800527,0.88 h -0.8 z"
       id="path1" /><g
       id="g12"><path
         id="path7"
         style="fill:#d97373;fill-opacity:1;fill-rule:evenodd;stroke-width:3.77953"
         d="m -176.4043,-72.78125 c -0.0825,0.0015 -0.17015,0.01176 -0.26172,0.0293 -1.42757,0.859972 -1.58061,2.812516 -2.61132,4.050781 -3.5058,5.884041 -5.23284,12.560182 -8.46485,18.566406 -2.04325,4.04433 -3.65025,8.539696 -3.35742,13.13086 0.82792,3.28146 3.15643,5.92186 4.90234,8.75 1.52113,2.028698 2.79887,4.42514 4.99219,5.8125 1.65015,0.219387 3.18708,-0.873633 4.67969,-1.449219 1.90596,-0.8248 3.24861,-2.530277 3.85547,-4.484375 0.52784,-1.204734 1.45721,-2.137919 2.2539,-3.083984 0.50888,-0.538396 0.30715,-1.320601 0.9961,-1.753907 0.71578,-0.959631 1.30241,-2.058712 1.74023,-3.144531 1.64248,-1.091923 1.13813,-3.512438 0.62305,-5.097656 -1.24887,-4.77367 -2.04709,-9.65916 -3.68164,-14.330078 -1.66895,-4.716189 -2.55264,-9.58792 -3.81641,-14.410156 -0.35289,-0.914753 -0.61154,-2.609051 -1.84961,-2.585938 z m 22.8125,1.193359 -0.15039,0.0059 -0.13281,0.0039 c -1.23363,0.427694 -1.6534,1.879476 -2.35547,2.865234 -2.42243,4.267834 -4.69456,8.806377 -5.08594,13.779297 -0.35382,4.163461 0.18096,8.412978 1.46289,12.384766 0.62753,1.8501 1.67662,3.823197 3.67969,4.433594 1.20898,0.4499 2.51386,0.961128 3.78906,0.4375 1.43441,-0.300357 2.93028,-0.745998 3.85938,-1.964844 1.41442,-1.721001 2.34739,-3.879487 2.63281,-6.085938 0.15665,-3.352887 0.0352,-6.738893 -0.81836,-10.001953 -1.06637,-4.430284 -2.20271,-8.904255 -4.19531,-13.021484 -0.70023,-1.061466 -1.35073,-2.49616 -2.68555,-2.835938 z m 21.05078,14.259766 c -2.79174,0.132013 -5.84252,1.58868 -6.74218,4.421875 -0.76952,2.831476 -0.94932,5.859246 -0.50196,8.759766 0.63051,2.391506 2.48872,4.235705 4.28711,5.828125 1.99745,1.827042 5.08215,1.272039 7.25,0.06836 1.9458,-1.062134 3.43527,-3.072591 3.42188,-5.349609 0.14116,-3.659512 -0.14667,-7.627225 -2.28906,-10.728516 -1.25137,-1.709503 -3.23469,-3.075691 -5.42579,-3.000001 z m -11.95117,30.179687 c -1.36332,0.225117 -1.04364,1.888629 -1.11914,2.888672 -0.0214,8.098331 -0.60677,16.2345332 -1.19922,24.322266 -0.026,1.2400357 0.80456,2.8859257 2.20703,2.8125 1.18348,-0.4264765 1.46899,-1.88187729 1.99414,-2.890625 1.07354,-3.1609658 1.544,-6.4953352 2.19532,-9.7617188 0.99365,-5.3586882 0.0391,-10.8961372 -1.60742,-16.0273442 -0.27737,-1.185166 -1.48787,-1.219422 -2.47071,-1.34375 z m -8.36523,1.126954 -0.45313,0.07617 c -1.6366,1.190633 -1.78585,3.412064 -2.38672,5.191406 -1.30357,4.728679 -2.17626,9.597625 -2.11914,14.5175779 0.0795,2.3796552 -0.23576,4.8195438 0.29688,7.1582031 0.66511,1.7599656 2.86106,2.0636409 4.49219,1.7519531 1.75183,-0.1908842 2.3404,-2.10436665 2.44336,-3.60546872 0.4495,-5.83173548 0.18862,-11.69158938 0.26757,-17.53515638 -0.0901,-1.590925 0.18946,-3.239645 -0.14843,-4.792969 -0.4912,-1.095648 -1.12848,-2.494965 -2.39258,-2.761718 z m 18.57031,2.416015 c -0.15591,0.02686 -0.31089,0.05323 -0.4668,0.08008 -1.07762,0.560476 -0.36908,1.852625 -0.49023,2.75 0.10375,5.988147 0.30365,11.9343834 -0.55664,17.8515629 -0.0622,1.2254325 -0.88257,2.48412228 -0.38867,3.69140622 0.83971,1.08089378 2.451,0.62679088 3.56445,0.28710938 1.51228,-0.59839213 1.56085,-2.4939436 1.91992,-3.84375 1.15004,-6.0611275 1.37854,-12.6965515 -1.49219,-18.3359375 -0.59505,-0.872966 -0.95502,-2.202952 -2.08984,-2.480469 z m -32.14648,5.720703 c -3.00832,0.110745 -6.15663,0.115402 -8.97266,1.302735 -0.89017,0.361557 -1.22036,1.372378 -0.93359,2.25 0.67932,3.659914 1.29447,7.3313009 1.86523,11.0097654 0.44748,1.9238337 0.69724,4.29607026 2.50586,5.4628906 1.42801,0.5835911 2.86223,-0.588538 3.8457,-1.51171875 2.23438,-2.33137275 3.28536,-5.48433115 4.53516,-8.39648435 0.90106,-2.4446809 1.92438,-4.9325949 2.15625,-7.5351559 -0.34487,-1.352862 -1.6142,-2.518242 -3.07227,-2.529297 -0.64166,-0.06074 -1.28588,-0.05508 -1.92968,-0.05273 z m 42.73632,0.929688 c -0.42774,0.0099 -0.86836,0.05984 -1.21875,0.01953 -0.19325,0.06176 -0.38683,0.123784 -0.58007,0.185547 -0.79449,0.754158 -0.095,1.877786 -0.21289,2.820312 0.35736,4.5324223 -0.14663,9.099921 -1.19922,13.49609425 -0.19617,0.78031046 -0.43642,2.03639935 0.62109,2.27929685 1.16096,0.1495282 1.916,-1.05446617 2.62305,-1.79296873 1.83051,-2.28566397 1.42681,-5.40937267 1.5625,-8.14062497 -0.0105,-2.6610394 0.0657,-5.3410124 -0.0352,-7.9902344 -0.16968,-0.80055 -0.84763,-0.893382 -1.56055,-0.876953 z m -66.05273,0.61914 c -1.92077,0.22247 -3.68279,1.746123 -3.86719,3.732422 -0.37251,3.2363601 -0.36734,6.5182097 -0.21484,9.7695316 0.0751,1.88275646 0.79937,3.9871059 2.69531,4.734375 2.26292,1.2694266 5.28784,0.6456025 6.90234,-1.3691406 1.37153,-1.51706739 0.99947,-3.733394 0.89258,-5.6035156 -0.39548,-2.8414526 -1.08994,-5.6753234 -2.23242,-8.3105464 -0.79942,-1.527937 -2.41744,-2.84204 -4.17578,-2.953126 z"
         transform="translate(22.195191,5.6835282)" /><path
         style="fill:#d64a4a"
         d="m -122.80621,6.136465 c 0,-0.27707 0.2199,-1.12703 0.48867,-1.8888 0.26877,-0.76177 0.57496,-2.97587 0.68043,-4.92022996 0.10548,-1.94436004 0.23456,-3.75120004 0.28685,-4.01520004 0.0523,-0.264 0.1061,-1.73548 0.11957,-3.269957 0.0211,-2.408245 0.0938,-2.763347 0.53131,-2.595467 0.27876,0.106969 0.37254,0.282449 0.2084,0.389957 -0.16413,0.107507 -0.305,0.411467 -0.31303,0.675467 -0.11551,3.79755 -0.0537,6.13478 0.18798,7.10398 0.16236,0.65119 0.20826,1.27091 0.10201,1.37716 -0.10625,0.10626004 -0.15163,0.67551004 -0.10084,1.26501004 0.0508,0.58951 -0.27072,2.11581996 -0.71446,3.39179996 -0.81701,2.3493 -1.47689,3.46019 -1.47689,2.48628 z m 18.91998,-1.56727 c 0.19139,-0.60333 0.61043,-1.96096 0.9312,-3.01696 0.38497,-1.26733996 0.59873,-1.64805996 0.62884,-1.11999996 0.0251,0.44 0.10837,1.31074996 0.18509,1.93499996 0.11896,0.96794 -0.0248,1.29425 -0.97681,2.21695 l -1.11629,1.08196 z m -8.42924,-0.057 c 0.181,-0.22 0.40236,-0.832 0.49189,-1.36 0.0895,-0.528 0.31884,-1.68 0.50956,-2.55999996 0.44794,-2.06686004 0.61366,-3.04868004 0.64815,-3.84000004 0.0174,-0.39867 0.30765,-0.0367 0.7698,0.96 0.69757,1.50439004 0.71801,1.72430004 0.34211,3.68 -0.52838,2.74897 -0.68962,3.1029 -1.51438,3.3241 -1.17985,0.31643 -1.61659,0.24495 -1.24713,-0.2041 z m -56.27656,-2.54232 c -0.2329,-0.56228 -0.39598,-1.35427996 -0.36241,-1.75999996 0.0336,-0.40572 -0.0898,-0.73768 -0.27424,-0.73768 -0.18442,0 -0.25494,-0.13003 -0.15671,-0.28897 0.24446,-0.39554004 -0.42599,-6.72802204 -0.78295,-7.39500504 -0.37032,-0.69194 0.34996,-1.748503 1.65043,-2.421006 1.28732,-0.665694 1.75862,-0.426684 2.22443,1.128064 0.21372,0.713305 0.53378,1.296917 0.71125,1.296917 0.17748,0 0.23498,0.08771 0.12778,0.194906 -0.1072,0.107198 0.0643,0.863194 0.38116,1.680004 0.31684,0.8168 0.66331,2.66361 0.76993,4.10402 0.16334,2.20662004 0.10753,2.71278004 -0.3545,3.21508004 -0.30159,0.32787996 -0.4296,0.41764996 -0.28445,0.19948996 0.32812,-0.49319996 -0.003,-3.54241 -0.49073,-4.5135 -0.42964,-0.85615 -0.67503,-0.89243 -1.36556,-0.2019 -0.28495,0.28495 -0.55408,0.46495 -0.59806,0.4 -0.044,-0.065 -0.25004,-0.5141 -0.4579,-0.9981 -0.20786,-0.484 -0.52502,-0.88 -0.70479,-0.88 -0.38753,0 -0.39119,0.9075 -0.0116,2.88 0.15241,0.792 0.36389,1.94400004 0.46995,2.56000004 0.10607,0.61599996 0.26353,1.44399996 0.34991,1.83999996 0.23551,1.07958 -0.35673,0.86667 -0.84094,-0.30232 z m 38.50463,-0.52009 c -0.64355,-0.0914 -0.7087,-0.25225 -0.60523,-1.49430996 0.14384,-1.72674004 -0.2652,-2.57682004 -0.68926,-1.43244004 -0.74706,2.01606004 -0.74554,2.03342004 -0.19748,-2.25084 0.11326,-0.88536 0.22348,-4.307498 0.16835,-5.226666 -0.0193,-0.322667 -0.21519,-0.52742 -0.43519,-0.455007 -0.23633,0.07779 -0.47698,0.972528 -0.58813,2.186663 -0.10347,1.13026 -0.13778,-0.646567 -0.0762,-3.948496 0.15418,-8.271653 1.14174,-11.244675 2.72303,-8.197597 0.49089,0.945916 0.63225,2.122099 0.76919,6.4 0.0923,2.882607 0.0518,7.329103 -0.09,9.881103 -0.25379,4.56759 -0.26907,4.6384 -0.97901,4.53759 z m -18.56621,-3.62337 c 0.007,-1.47082 -0.0645,-3.28618 -0.15937,-4.03413 -0.0948,-0.74795 -0.041,-1.441106 0.11954,-1.540345 0.51228,-0.316604 1.56723,-2.788947 1.56723,-3.672895 0,-0.83037 0.0638,-0.858328 2.40958,-1.056623 2.6553,-0.224455 3.27067,-0.01336 4.11176,1.410503 l 0.5159,0.873336 -1.02149,-0.04703 c -0.99804,-0.04595 -1.05347,0.02639 -2.41552,3.152967 l -1.39404,3.2 0.20146,-2.45064 c 0.19152,-2.329864 0.16673,-2.461667 -0.50305,-2.674247 -0.83151,-0.263912 -1.27668,0.270196 -1.2043,1.444887 0.0271,0.44 -0.0571,1.124 -0.18706,1.52 -0.15218,0.46355 -0.10657,0.72 0.12805,0.72 0.22728,0 0.19033,0.1741 -0.0982,0.46262 -0.25444,0.25444 -0.71949,1.44244 -1.03344,2.64 -0.31396,1.19756 -0.67866,2.30078004 -0.81046,2.45160004 -0.13179,0.15081 -0.23376,-0.92919 -0.2266,-2.40000004 z m -22.4726,-0.64755 c 0,-1.26134 0.0546,-2.23334 0.12129,-2.16 0.26872,0.29537 0.41498,4.45333004 0.15666,4.45333004 -0.15287,0 -0.27795,-1.03200004 -0.27795,-2.29333004 z m 68.82527,0.82666 c 0.0154,-0.37278 0.0912,-0.4486 0.19333,-0.19333 0.0924,0.231 0.0811,0.507 -0.0253,0.61333 -0.10633,0.10634 -0.18197,-0.0827 -0.16807,-0.42 z m -43.84001,-2.24 c 0.0154,-0.37278 0.0912,-0.4486 0.19334,-0.19333 0.0924,0.231 0.0811,0.507 -0.0253,0.61333 -0.10634,0.10634 -0.18197,-0.0827 -0.16807,-0.42 z m -4.66851,-1.4617 c -0.29289,-1.37674 -1.07847,-2.301766 -1.59248,-1.875173 -0.27637,0.22936 -0.46659,-0.07038 -0.70451,-1.110103 -0.2328,-1.017319 -0.22504,-1.465949 0.0272,-1.570063 0.22657,-0.09354 0.20976,-0.154816 -0.0469,-0.171028 -0.22,-0.01389 -0.4,-0.161254 -0.4,-0.327465 0,-0.283264 2.5456,-0.138856 2.8459,0.161444 0.13698,0.13698 0.17589,0.395239 0.54415,3.611778 0.22705,1.98309 -0.30753,2.99985 -0.6733,1.28061 z m 48.33058,-3.042302 c -0.11037,-0.85213 -0.24844,-1.788908 -0.30683,-2.081727 -0.0619,-0.310711 0.14487,-0.598042 0.49668,-0.690042 0.57651,-0.150762 0.82809,0.37186 0.58846,1.222441 -0.0496,0.176 -0.13169,0.877053 -0.18246,1.557894 -0.13272,1.779986 -0.36461,1.776656 -0.59585,-0.0086 z m -62.34249,0.473049 c -0.12419,-0.471693 -0.45873,-1.09055 -0.74342,-1.375238 -0.28469,-0.284688 -0.44418,-0.591049 -0.35443,-0.680801 0.29277,-0.292766 1.56245,1.782075 1.44144,2.355512 -0.0859,0.406955 -0.17896,0.325832 -0.34359,-0.299473 z m 53.23927,-5.68748 c -0.24055,-0.148668 -0.35046,-0.496781 -0.24424,-0.773585 0.10622,-0.276803 0.0386,-0.946687 -0.15037,-1.48863 -0.18892,-0.541944 -0.26817,-1.060679 -0.1761,-1.152746 0.0921,-0.09207 0.40524,0.650763 0.69594,1.650731 0.56823,1.954661 0.55204,2.182806 -0.12523,1.76423 z m -9.62922,-2.319873 c -0.0852,-1.003737 -0.0382,-1.707827 0.10447,-1.564644 0.14264,0.143183 0.21234,0.964422 0.15489,1.824976 l -0.10447,1.564644 z m -0.31489,-2.611869 c 0,-0.240265 -0.29854,-0.816375 -0.66342,-1.280243 -0.36488,-0.463869 -0.61688,-1.055497 -0.56,-1.314729 0.13682,-0.623567 0.87973,-0.155837 1.04089,0.655335 0.0674,0.339065 0.2236,1.012482 0.3472,1.496482 0.12359,0.484 0.1371,0.88 0.03,0.88 -0.10708,0 -0.19469,-0.19658 -0.19469,-0.436845 z m -40.27018,-6.152988 c -0.28812,-0.326688 -0.72428,-0.423166 -1.32078,-0.292153 -0.83567,0.183544 -1.00022,0.02185 -2.66761,-2.621202 -2.81119,-4.456148 -2.89692,-4.944707 -1.78835,-10.191292 0.55161,-2.610661 1.08653,-3.972329 2.9642,-7.545532 l 2.29111,-4.360011 -0.12114,2.398992 c -0.0971,1.922133 -0.0343,2.370439 0.3158,2.255342 0.74452,-0.244771 1.79646,-2.092573 3.12344,-5.486565 1.42498,-3.644635 2.10624,-5.068351 2.32199,-4.8526 0.08,0.08 0.0251,1.337825 -0.12196,2.795158 -0.14707,1.457332 -0.20473,3.00484 -0.12811,3.438906 0.10681,0.605174 -0.23362,1.197241 -1.45991,2.538996 -1.5593,1.706128 -1.95329,2.383039 -2.38262,4.093635 -0.14575,0.580724 -0.0991,0.765556 0.15378,0.609267 0.23358,-0.144362 0.29506,-0.04729 0.17243,0.272271 -0.10481,0.273141 -0.0312,0.496621 0.16367,0.496621 0.19483,0 0.35424,0.4032 0.35424,0.896 0,0.4928 0.15495,1.050953 0.34434,1.24034 0.24578,0.245788 0.0779,0.973902 -0.58653,2.544 -1.34169,3.170449 -1.82643,5.26827 -1.29512,5.604878 0.68395,0.433309 1.01643,0.147073 1.84889,-1.591769 0.43537,-0.909397 0.9672,-1.653449 1.18185,-1.653449 0.21465,0 0.59654,-0.29449 0.84865,-0.654422 0.42195,-0.602415 0.47544,-0.609964 0.67305,-0.09499 0.33394,0.870224 -0.14531,3.949412 -0.61468,3.949412 -0.4483,0 -0.78936,0.981094 -0.79608,2.290041 -0.004,0.709516 -0.11727,0.820518 -0.68731,0.67145 -0.6561,-0.171573 -0.67406,-0.107515 -0.45698,1.629958 0.2084,1.667933 0.17645,1.808551 -0.41089,1.808551 -0.35027,0 -0.82863,0.06703 -1.06302,0.148965 -0.2344,0.08193 -0.61975,-0.07053 -0.85635,-0.338798 z m 7.31605,-3.970167 c -0.12374,-0.855773 -0.29555,-5.13412 -0.48189,-12 -0.10032,-3.696001 -0.19704,-7.008001 -0.21495,-7.360001 -0.072,-1.416302 0.16167,-4.179463 0.37892,-4.48 0.12722,-0.176 0.33291,-1.021371 0.45708,-1.878603 0.24541,-1.694253 0.6139,-1.647369 0.9322,0.118603 0.14228,0.789399 0.10899,0.978314 -0.11278,0.64 -0.43853,-0.66897 -0.40269,-0.282989 0.19445,2.094235 0.32428,1.290963 0.68434,2.065765 0.96,2.065765 0.2426,0 0.4411,0.224499 0.4411,0.498886 0,0.274387 -0.12585,0.421108 -0.27966,0.326047 -0.3135,-0.193753 0.42504,3.736853 0.91224,4.855067 0.17253,0.396 0.20878,0.718536 0.0806,0.716746 -0.12823,-0.0018 -0.48483,-0.602102 -0.79245,-1.334025 -0.68596,-1.632107 -1.10444,-1.412748 -0.52623,0.275839 0.23003,0.671792 0.43029,1.29344 0.44502,1.38144 0.15234,0.9102 1.23943,3.520001 1.46623,3.520001 0.52861,0 0.30922,1.88004 -0.34452,2.952265 -0.56258,0.922725 -0.63894,0.962376 -0.64,0.332327 -6.6e-4,-0.393474 -0.14348,-1.329474 -0.31738,-2.08 -0.1739,-0.750526 -0.53826,-2.803813 -0.80969,-4.56286 -0.27665,-1.792854 -0.70157,-3.406318 -0.96697,-3.671724 -0.41794,-0.417942 -0.45532,-0.294228 -0.31879,1.0551 0.0851,0.840705 0.23979,1.666274 0.34381,1.834596 0.10403,0.168323 0.24645,0.916748 0.31649,1.663168 0.10365,1.10469 1.35627,9.194856 1.52093,9.823114 0.0251,0.09571 -0.0532,0.642014 -0.17399,1.214014 -0.14989,0.709859 -0.40365,1.04 -0.79939,1.04 -0.51935,0 -0.55879,-0.208463 -0.37837,-2 0.11077,-1.1 0.15302,-2.648 0.0939,-3.44 -0.0591,-0.792 -0.10402,-1.864456 -0.0997,-2.383235 0.004,-0.518779 -0.0747,-0.860729 -0.17554,-0.759889 -0.10084,0.10084 -0.24851,1.677296 -0.32816,3.503235 -0.13898,3.186417 -0.63802,7.03864 -0.78243,6.039889 z m 43.77413,-4.698597 c 0.231,-0.09244 0.507,-0.08107 0.61333,0.02526 0.10634,0.106334 -0.0827,0.181965 -0.42,0.16807 -0.37278,-0.01535 -0.4486,-0.09118 -0.19333,-0.193333 z m -45.99474,-2.20807 c 0.0153,-0.372782 0.0912,-0.448608 0.19333,-0.193333 0.0924,0.231 0.0811,0.507 -0.0253,0.613333 -0.10633,0.106333 -0.18196,-0.08267 -0.16807,-0.42 z m 46.37474,-1.373333 c 0,-0.198 -0.20334,-0.36 -0.45187,-0.36 -0.52006,0 -0.94437,-1.991838 -0.87059,-4.086786 0.0265,-0.751731 0.34591,-2.452151 0.70985,-3.778711 0.57847,-2.108575 0.60529,-2.500127 0.21323,-3.113215 -0.80392,-1.257128 -0.9101,-1.811514 -0.30432,-1.588836 1.94068,0.713373 4.47918,5.908606 4.77262,9.767548 0.14612,1.921537 0.10117,2.16 -0.40713,2.16 -0.31427,0 -0.80818,0.214289 -1.09759,0.476199 -0.69077,0.625136 -2.5642,1.00783 -2.5642,0.523801 z m -40.27643,-2.973828 c -0.024,-0.293606 -0.13677,-0.797606 -0.25067,-1.120001 -0.15987,-0.452488 -0.1172,-0.503364 0.18709,-0.223079 0.21681,0.199701 0.32961,0.703701 0.25068,1.12 -0.0789,0.416299 -0.16313,0.516685 -0.1871,0.22308 z m 16.09307,-1.379302 c -0.33915,-0.256584 -0.47264,-0.468891 -0.29664,-0.471793 0.4755,-0.0078 1.28823,0.563355 1.08737,0.764217 -0.0958,0.09575 -0.45158,-0.03584 -0.79073,-0.292424 z m -14.64331,-0.380207 c -0.11733,-0.117333 -0.21333,-0.469914 -0.21333,-0.783513 0,-0.313599 -0.36,-0.958626 -0.8,-1.433394 -0.44,-0.474768 -0.8,-1.046409 -0.8,-1.270315 0,-0.223905 -0.0854,-0.670878 -0.18979,-0.993273 -0.13814,-0.426644 -0.0169,-0.374368 0.44532,0.192082 0.59815,0.732974 0.64522,0.742283 0.80903,0.16 0.16617,-0.590669 0.17321,-0.589699 0.15783,0.02175 -0.009,0.352 0.0185,0.748 0.0607,0.88 0.0423,0.132 0.10414,0.348 0.1375,0.48 0.0334,0.132 0.22745,0.807904 0.43133,1.502007 0.37157,1.265051 0.35984,1.643136 -0.0386,1.24466 z m 13.08207,-2.586667 c -0.12737,-0.836 -0.30796,-2.091026 -0.40129,-2.788946 -0.2054,-1.535795 -0.9899,-2.824167 -1.58144,-2.597169 -0.50671,0.19444 -0.60927,-0.94697 -0.11267,-1.253885 0.176,-0.108774 0.32,-0.03557 0.32,0.162679 0,0.21279 0.25781,0.278623 0.62934,0.160705 0.63918,-0.202867 0.67136,-0.139493 1.13595,2.236616 0.24333,1.244492 0.55339,5.6 0.39865,5.6 -0.0863,0 -0.26116,-0.684 -0.38854,-1.52 z m 8.51513,0.88 c 0,-0.44 0.0726,-0.62 0.1614,-0.4 0.0888,0.22 0.0888,0.58 0,0.8 -0.0888,0.22 -0.1614,0.04 -0.1614,-0.4 z m -0.0505,-1.226666 c 0,-0.205334 -0.27291,-0.373334 -0.60647,-0.373334 -0.5701,0 -0.59786,-0.235078 -0.46289,-3.92 0.079,-2.156 0.29842,-4.496 0.48768,-5.2 l 0.3441,-1.28 0.551,1.28 c 0.47016,1.092198 0.51879,1.878723 0.33142,5.360707 -0.12078,2.244388 -0.31527,4.176388 -0.43222,4.293333 -0.11694,0.116945 -0.21262,0.04463 -0.21262,-0.160706 z m -4.42948,-1.013334 c 0,-0.44 0.0726,-0.62 0.16141,-0.4 0.0888,0.22 0.0888,0.58 0,0.8 -0.0888,0.22 -0.16141,0.04 -0.16141,-0.4 z m -0.39991,-1.534169 c -0.66042,-0.771316 -0.98291,-1.665831 -0.60057,-1.665831 0.17048,0 0.31192,-0.612 0.31433,-1.36 0.002,-0.748 0.0993,-1.714949 0.2153,-2.148776 0.16948,-0.633753 0.32557,-0.319295 0.79419,1.6 0.53689,2.19893 0.53305,4.148776 -0.008,4.148776 -0.12291,0 -0.44469,-0.258376 -0.71508,-0.574169 z m -18.06377,-0.407121 c -0.11602,-0.187709 -0.1423,-0.40992 -0.0584,-0.493801 0.0839,-0.08388 0.23778,0.0697 0.342,0.34129 0.21637,0.563875 0.0319,0.663059 -0.28359,0.152511 z m 16.44633,-3.311871 c -0.13368,-1.449132 -0.34462,-2.030801 -0.89936,-2.48 -0.88867,-0.719601 -1.72593,-0.74901 -2.39096,-0.08398 -0.61686,0.61686 -0.61695,0.643529 0.005,-1.484776 0.47558,-1.626502 4.11596,-9.009221 5.09772,-10.338217 0.24837,-0.336216 0.65431,-0.519178 0.92308,-0.416043 0.74119,0.284422 2.35156,3.308283 3.23404,6.072698 0.95503,2.991665 0.96915,3.201258 0.19917,2.956877 -0.61758,-0.196015 -1.15309,0.656305 -1.47641,2.349902 -0.19071,0.998956 -0.48579,1.278254 -0.48579,0.459808 0,-0.817158 -1.29401,-2.343106 -1.98697,-2.343106 -0.82976,0 -1.90009,1.554146 -1.53725,2.232125 0.16593,0.31005 0.22792,0.637509 0.13774,0.727688 -0.0902,0.09018 -0.27236,1.081113 -0.40484,2.202075 l -0.24087,2.038112 z m 8.41735,0.773161 c 0,-0.44 0.0726,-0.62 0.16141,-0.4 0.0888,0.22 0.0888,0.58 0,0.8 -0.0888,0.22 -0.16141,0.04 -0.16141,-0.4 z m -27.22526,-1.146626 c 0.0153,-0.372782 0.0912,-0.448608 0.19333,-0.193334 0.0924,0.231 0.0811,0.507 -0.0253,0.613334 -0.10633,0.106333 -0.18197,-0.08267 -0.16807,-0.42 z m 1.28,-0.96 c 0.0154,-0.372782 0.0912,-0.448608 0.19333,-0.193334 0.0924,0.231 0.0811,0.507 -0.0253,0.613334 -0.10633,0.106333 -0.18197,-0.08267 -0.16807,-0.42 z m -1.62527,-11.493334 c 0,-0.264 0.0566,-0.48 0.12577,-0.48 0.0692,0 0.20865,0.216 0.30995,0.48 0.10131,0.264 0.0447,0.48 -0.12576,0.48 -0.17048,0 -0.30996,-0.216 -0.30996,-0.48 z"
         id="path10"
         sodipodi:nodetypes="sssscssssssssssssccsscssssssssssssssssssscsssssssssssscsscssssssccssscsscssscssssssscsscscccsscsscsssssssccccsssccssssssscsssssscsssscsssssssssccssssssssssssssssssscssssscscssssssssssssssssssssssssssscssccssssscscccssssssssssssssssccsssssscscccsssssssssssssssssssscsssssssscscsssccssssscsscssssssssssccsssscsccccscccsssss" /><path
         style="fill:#a23535"
         d="m -132.85985,8.900752 c -0.58042,-0.25541 -0.95376,-0.67333 -0.98543,-1.10311 -0.028,-0.38056 0.0527,-0.62786 0.17937,-0.54957 0.19748,0.12205 0.50529,-0.93874 0.79276,-2.73204 0.34732,-2.16673 0.51631,-3.09296 0.62257,-3.41236 0.0681,-0.2048 0.22169,-1.9328 0.34122,-3.84 0.2054,-3.277279 0.48507,-4.353204 0.99816,-3.840111 0.21677,0.216772 0.2028,4.009151 -0.0208,5.652471 -0.5575,4.0968 -0.5455,4.23827 0.19095,2.25084 0.4264,-1.15067 0.83279,-0.29054 0.68739,1.45485 -0.1024,1.22929 -0.0362,1.41431 0.50636,1.41431 0.34329,0 0.70395,0.1291 0.80147,0.28688 0.31228,0.50529 -0.21461,3.25553 -0.74604,3.89414 -0.66911,0.80405 -2.1925,1.04093 -3.36795,0.5237 z m -33.78554,-0.24155 c 0,-0.71357 1.34182,-3.2875 2.28488,-4.38292 0.86765,-1.00783 0.88912,-1.12078 0.69962,-3.68 -0.10753,-1.45214 -0.45474,-3.30854 -0.77158,-4.12534 -0.31684,-0.81681 -0.48836,-1.572806 -0.38116,-1.680004 0.1072,-0.107198 0.0425,-0.194906 -0.14374,-0.194906 -0.18625,0 -0.42564,-0.346622 -0.53197,-0.770271 -0.10633,-0.42365 -0.28335,-1.03565 -0.39338,-1.36 -0.12779,-0.376704 0.11228,-0.242952 0.66461,0.370271 0.47556,0.528 0.96098,0.936 1.07869,0.906667 0.11771,-0.02933 0.28603,0.02975 0.37403,0.131304 0.088,0.101551 -0.02,0.08105 -0.24,-0.04555 -0.45463,-0.261624 -0.47743,0.0027 -0.08,0.927581 l 0.27501,0.64 0.0322,-0.64 c 0.0628,-1.24647 0.61895,0.296915 1.60945,4.46606 1.08051,4.54801 1.1529,5.50656 0.52748,6.98422 -0.43554,1.02902 -1.79981,2.5066 -1.80907,1.95932 -0.003,-0.15928 -0.12594,-0.0987 -0.27388,0.13467 -0.38139,0.60156 -2.92122,0.91361 -2.92122,0.3589 z m 64.16,-1.26317 c 0.31855,-0.352 0.65119,-0.64 0.73919,-0.64 0.088,0 -0.10064,0.288 -0.41919,0.64 -0.31856,0.352 -0.6512,0.64 -0.7392,0.64 -0.088,0 0.10064,-0.288 0.4192,-0.64 z m -44.18879,-1.01207 c 0.21577,-1.34936 0.4179,-1.92201 3.22696,-9.14219 1.85844,-4.77677 2.03688,-5.046716 3.15109,-4.767068 0.68569,0.172097 0.7912,0.319556 0.54896,0.767187 -0.16493,0.304778 -0.59089,1.562141 -0.94657,2.794141 -1.35632,4.69801 -4.49365,11.03903 -5.68863,11.49758 -0.43192,0.16575 -0.47501,-0.004 -0.29181,-1.14965 z m 45.20458,-0.95145 c -0.10887,-0.41606 -0.12036,-2.26848 -0.0255,-4.11648 0.16838,-3.28187 0.38871,-8.092561 0.43548,-9.508207 0.0162,-0.490285 0.16969,-0.652067 0.49883,-0.525763 0.90387,0.346845 0.51524,12.71606 -0.45393,14.44788 -0.19798,0.35377 -0.3023,0.28555 -0.45484,-0.29743 z m -46.12208,-2.59648 c 0.89242,-4.13284 2.48647,-7.03148 2.19337,-3.98844 -0.0703,0.72957 -0.19104,1.54742 -0.26838,1.81746 -0.0773,0.27004 -0.29873,1.10298 -0.49199,1.85098 -0.26896,1.04098 -0.50458,1.36 -1.00447,1.36 -0.56956,0 -0.62437,-0.13303 -0.42853,-1.04 z m 27.60364,-0.15968 c -0.1085,-0.39583 -0.0819,-0.79098 0.0591,-0.87812 0.141,-0.0872 0.11088,-0.77129 -0.0669,-1.52032 -0.17781,-0.74904 -0.3219,-1.50588 -0.32021,-1.68188 0.038,-3.955031 0.20774,-5.920754 0.51158,-5.9249 0.2619,-0.0036 0.26297,-0.06853 0.004,-0.24 -0.21756,-0.144021 -0.36653,-1.481356 -0.38451,-3.452039 -0.0162,-1.769317 -0.19274,-3.929317 -0.39241,-4.8 -0.61406,-2.67761 -0.65125,-3.023061 -0.32545,-3.023061 0.50612,0 0.88566,0.956558 1.72208,4.340227 1.23856,5.010429 1.29902,8.099312 0.26269,13.419773 -0.56871,2.91971 -0.94133,4.22935 -1.0699,3.76032 z m 10.87376,-1.86916 c -0.38459,-0.90411 -0.57641,-2.58261 -0.69153,-6.05116 -0.16326,-4.918967 -1.17086,-10.389918 -1.70734,-9.587186 -0.18037,0.269896 -0.20938,0.102849 -0.0793,-0.456879 0.1328,-0.571572 0.0235,-1.159308 -0.31028,-1.668742 -0.59065,-0.901444 -0.6602,-1.256267 -0.18919,-0.965166 0.44732,0.276457 3.10314,4.856966 3.11508,7.710781 0.009,2.1373457 1.13215,8.924972 0.67065,11.018352 l -0.27583,1.25116 z m -2.46585,-2.55783 c 0.0153,-0.37278 0.0912,-0.4486 0.19333,-0.19333 0.0924,0.231 0.0811,0.507 -0.0253,0.61333 -0.10633,0.10634 -0.18196,-0.0827 -0.16807,-0.42 z m 9.6,-0.32 c 0.0154,-0.37278 0.0912,-0.4486 0.19333,-0.19333 0.0924,0.231 0.0811,0.507 -0.0253,0.61333 -0.10633,0.10634 -0.18196,-0.0827 -0.16807,-0.42 z m -43.60526,-9.311926 c 0.231,-0.09244 0.507,-0.08107 0.61333,0.02526 0.10633,0.106333 -0.0827,0.181965 -0.42,0.16807 -0.37278,-0.01535 -0.44861,-0.09118 -0.19333,-0.193333 z m -13.73899,-5.626165 c -0.63745,-0.569381 -1.81145,-1.994106 -2.60889,-3.166055 -1.38496,-2.035391 -1.41904,-2.139092 -0.76101,-2.31563 0.97275,-0.260972 1.07095,-0.245777 1.55777,0.241043 0.26621,0.266212 0.84003,0.375091 1.48101,0.281015 l 1.04642,-0.153581 -0.2211,-1.769566 c -0.21196,-1.696511 -0.19289,-1.762193 0.46185,-1.590974 0.57004,0.149068 0.68366,0.03807 0.68731,-0.67145 0.007,-1.304867 0.34732,-2.290041 0.79177,-2.290041 0.55052,0 1.06244,-4.52619 1.31225,-11.602436 0.11033,-3.12534 0.31372,-5.752345 0.45197,-5.837789 0.50253,-0.310579 0.72373,1.721233 0.83615,7.680225 0.14548,7.711762 0.33,11.993179 0.5253,12.188484 0.21906,0.219056 0.6138,-3.38416 0.73412,-6.701167 0.0565,-1.557975 0.18851,-2.918431 0.29332,-3.023234 0.1048,-0.104804 0.18704,0.233903 0.18274,0.752682 -0.004,0.518779 0.0406,1.591235 0.0997,2.383235 0.0591,0.792 0.0169,2.34 -0.0939,3.44 -0.18042,1.791537 -0.14098,2 0.37838,2 0.39573,0 0.64949,-0.330141 0.79938,-1.04 0.12079,-0.572 0.19908,-1.118306 0.174,-1.214014 -0.16466,-0.628258 -1.41728,-8.718424 -1.52094,-9.823114 -0.07,-0.74642 -0.21245,-1.494845 -0.31648,-1.663168 -0.10403,-0.168322 -0.25875,-0.993891 -0.34381,-1.834596 -0.13654,-1.349328 -0.0992,-1.473042 0.31878,-1.0551 0.26541,0.265406 0.69032,1.87887 0.96697,3.671724 0.27143,1.759047 0.6358,3.812334 0.8097,4.56286 0.1739,0.750526 0.31672,1.686526 0.31738,2.08 10e-4,0.630049 0.0774,0.590398 0.64,-0.332327 0.77449,-1.270291 0.87096,-4.220459 0.17284,-5.285924 -0.25627,-0.391128 -0.46555,-0.998062 -0.46506,-1.348742 5e-4,-0.35068 -0.27883,-1.824831 -0.62072,-3.275892 -0.72397,-3.072689 -0.35477,-3.230805 0.568,-0.243252 0.34849,1.128279 0.92839,2.346195 1.28868,2.706481 0.36028,0.360285 0.65506,0.934565 0.65506,1.276178 0,0.341613 0.144,0.710112 0.32,0.818885 0.39533,0.24433 0.39534,0.244526 -0.0186,-1.122112 -0.18621,-0.614838 -0.40371,-1.477888 -0.48333,-1.917888 -0.13181,-0.728386 -0.41263,-1.900822 -0.6515,-2.72 -0.79033,-2.710368 -1.11326,-4.176203 -1.28661,-5.84 -0.16778,-1.610366 -0.12005,-2 0.24504,-2 0.2996,0 0.7075,0.949835 1.20244,2.8 0.41196,1.54 1.15128,4.024 1.64293,5.52 0.49166,1.496 1.05055,3.728 1.24199,4.96 0.19144,1.232001 0.57184,3.104001 0.84533,4.160001 1.09294,4.220074 1.09882,4.327234 0.27645,5.042278 -0.41379,0.359786 -0.6741,0.780764 -0.57846,0.935508 0.24853,0.402131 -1.45161,3.194882 -1.81008,2.973338 -0.16407,-0.101401 -0.21465,0.03365 -0.11239,0.300121 0.10685,0.278461 -0.13575,0.795823 -0.57051,1.216621 -0.89821,0.869383 -2.50274,3.294207 -2.50274,3.78225 0,0.534999 -1.39681,2.460276 -2.26111,3.116578 -0.86136,0.654062 -2.37011,0.896868 -2.01636,0.324497 0.13085,-0.211726 0.0683,-0.258566 -0.1583,-0.118522 -0.20607,0.127354 -0.30159,0.349799 -0.21227,0.49432 0.15399,0.249163 -1.70319,1.298365 -2.28032,1.28825 -0.1494,-0.0026 -0.79318,-0.470618 -1.43063,-1.04 z m 11.04108,-8.411859 c 0.10928,-0.284776 0.0556,-0.413223 -0.12576,-0.301115 -0.17398,0.107528 -0.31633,0.331007 -0.31633,0.49662 0,0.460298 0.22936,0.358868 0.44209,-0.195505 z m 15.39791,-6.218281 c -1.50132,-0.487603 -1.6745,-0.660747 -2.80773,-2.807168 -0.95714,-1.812887 -1.29729,-2.934624 -1.63938,-5.406334 -0.50776,-3.668782 -0.50654,-7.204621 0.003,-7.37575 0.5513,-0.185315 1.29951,1.200745 1.50477,2.787571 0.3684,2.848101 0.87482,4.928534 1.26353,5.190727 1.4235,0.960197 1.37629,1.074128 1.36598,-3.296529 -0.005,-2.27133 0.11992,-4.167474 0.27838,-4.213654 0.15846,-0.04618 0.33925,0.251109 0.40175,0.660642 0.0625,0.409532 0.32885,0.959818 0.59189,1.222857 0.27627,0.276269 0.47825,1.06028 0.47825,1.856365 0,1.03284 0.16425,1.488106 0.65559,1.817142 0.36058,0.241467 0.67922,0.763031 0.7081,1.159031 0.0289,0.396 0.14983,0.72 0.26879,0.72 0.23366,0 0.76153,2.210673 0.64333,2.694168 -0.0396,0.161792 0.1522,0.10816 0.42613,-0.119183 0.27393,-0.227342 0.49806,-0.603552 0.49806,-0.836022 0,-0.232469 0.27999,-0.618787 0.62221,-0.858484 0.47456,-0.332395 0.70236,-1.075073 0.96,-3.12975 0.18578,-1.481666 0.33779,-2.874397 0.33779,-3.094957 0,-0.453838 1.52789,-1.55455 1.79168,-1.290754 0.0944,0.09444 0.30939,1.634881 0.47766,3.4232 0.27193,2.890087 0.23409,3.492726 -0.34043,5.42187 -1.44408,4.848957 -4.4491,6.787077 -8.48891,5.475012 z m 19.95918,-0.565099 c -0.39804,-0.507538 -0.38672,-0.518857 0.12082,-0.120818 0.308,0.24155 0.56,0.49355 0.56,0.56 0,0.263371 -0.26278,0.09386 -0.68082,-0.439182 z m 6.44082,0.20925 c 0,-0.192912 0.23057,-1.143881 0.51237,-2.113263 0.8671,-2.982704 0.30566,-6.223495 -1.78969,-10.330734 -0.80209,-1.572225 -1.87746,-2.73188 -2.80268,-3.022344 -0.396,-0.124321 -0.72,-0.420334 -0.72,-0.657807 0,-0.237473 -0.18,-0.496862 -0.4,-0.576419 -0.22,-0.07956 0.29318,-0.253284 1.14041,-0.386061 2.85143,-0.446875 5.27465,1.379631 6.69548,5.046731 0.83891,2.165206 1.15211,7.408985 0.55125,9.229598 -0.56339,1.707093 -3.18714,4.020616 -3.18714,2.810299 z m -11.81474,-6.555917 c 0.0153,-0.372782 0.0912,-0.448608 0.19333,-0.193333 0.0924,0.231 0.0811,0.507 -0.0253,0.613333 -0.10633,0.106333 -0.18196,-0.08267 -0.16807,-0.42 z m -34.39993,-10.573102 c -0.29285,-1.165872 -0.46382,-2.188408 -0.37993,-2.272301 0.0839,-0.08389 0.31304,0.474002 0.50921,1.239768 0.19617,0.765766 0.48615,1.788301 0.64439,2.272301 0.15824,0.484 0.1687,0.88 0.0233,0.88 -0.14545,0 -0.50406,-0.953895 -0.79692,-2.119768 z"
         id="path9"
         sodipodi:nodetypes="scsscsscssssssssssssssssssssccsscsssssssssssssssccsssccsscsssccsssscsssscccsscsssscccsccccscccssssscsssscsscssssssscscssscssssscssssssssssssssssssssssssssssccsssscsscsscssssssscssssssssccsssssssssssssscsccccsssscc" /><path
         style="fill:#000000"
         d="m -124.30649,8.8466585 c -0.93641,-0.9967694 -1.59102,-3.0216301 -1.20813,-3.7370614 0.16754,-0.3130552 0.43946,-2.7619791 0.60427,-5.44205302 0.16482,-2.68007398 0.45488,-6.81686178 0.64458,-9.19286178 0.19117,-2.3943153 0.25022,-6.2100243 0.13248,-8.5600003 -0.19968,-3.985336 -0.17683,-4.241428 0.38035,-4.263779 0.32603,-0.01308 0.90952,-0.08307 1.29666,-0.155532 0.38713,-0.07246 0.79163,0.01024 0.89888,0.183779 0.10726,0.173543 0.52888,0.315532 0.93694,0.315532 1.08703,0 1.3546,0.492358 2.27254,4.181737 1.19608,4.807306 1.53177,9.634305 0.92204,13.2582633 -1.17999,7.0132562 -2.47578,12.1012268 -3.40581,13.3731276 -0.64406,0.8808071 -2.66262,0.9033751 -3.4748,0.038849 z m 2.55531,-2.3111694 c 0.8051,-1.578131 1.40782,-3.9625108 2.41766,-9.5643807 0.73993,-4.1046482 0.78944,-4.8774773 0.5125,-8.0000004 -0.1686,-1.901034 -0.67388,-4.718602 -1.12285,-6.261261 -0.44896,-1.54266 -0.81629,-2.858316 -0.81629,-2.923681 0,-0.06536 -0.4255,-0.181294 -0.94555,-0.257621 l -0.94554,-0.138777 0.1741,2.422457 c 0.0957,1.332351 0.0122,4.942457 -0.18565,8.022457 -0.19785,3.0800003 -0.49534,7.8886365 -0.66107,10.68585845 -0.16574,2.79722195 -0.37096,5.15547895 -0.45605,5.24057105 -0.22908,0.2290717 0.74584,1.9935711 1.10147,1.9935711 0.16791,0 0.58518,-0.5486371 0.92727,-1.2191935 z m -47.04133,2.0391664 c -0.77421,-0.3629851 -1.45565,-0.7679729 -1.51432,-0.8999729 -0.0587,-0.132 -0.3056,-0.24 -0.54874,-0.24 -0.6564,0 -0.99192,-0.8431163 -1.43557,-3.6074042 -0.51535,-3.21099215 -0.26522,-10.4903076 0.41614,-12.1104132 1.11355,-2.6477782 4.62565,-3.9515292 6.6908,-2.4837392 2.30923,1.6412745 3.01392,3.0740519 4.40939,8.9652902 0.85017,3.5891553 0.84322,5.7646558 -0.0241,7.5563494 -1.35083,2.7904446 -5.17729,4.1403014 -7.99359,2.8198899 z m 4.4896,-1.7004702 c 2.60486,-1.3282482 3.02799,-3.3607013 1.80198,-8.6555928 -1.05883,-4.572865 -1.61255,-5.9467625 -2.79912,-6.9451953 -1.29895,-1.0929945 -2.24168,-1.2687911 -3.45086,-0.6435016 -1.70709,0.8827748 -2.05067,2.1840634 -2.07123,7.8447868 -0.0226,6.2214102 0.25444,7.2891345 2.13664,8.2345195 1.684,0.8458364 2.95362,0.8936315 4.38259,0.1649834 z m 29.62275,1.8725328 c -1.51115,-0.8833751 -1.75008,-1.7078549 -1.75528,-6.0569668 -0.007,-5.8579347 0.56496,-11.1738648 1.76188,-16.3750693 1.59719,-6.940607 1.97965,-7.681583 3.963,-7.677814 0.93866,0.0018 1.2795,0.193204 1.85181,1.04 0.38578,0.570798 0.86704,1.469814 1.06948,1.997814 0.54523,1.422116 0.73111,10.2508702 0.38095,18.09462382 -0.34257,7.67375218 -0.58204,8.61441378 -2.34987,9.23068328 -1.47579,0.5144639 -3.81451,0.3941209 -4.92197,-0.253271 z m 4.84369,-1.8985649 c 0.64638,-0.8720031 0.8493,-4.1541122 0.88372,-14.2934709 0.0291,-8.5633153 -0.0276,-9.7101163 -0.52513,-10.6197083 -1.17195,-2.142706 -1.79056,-1.707474 -2.81385,1.979708 -1.93371,6.9676947 -2.52314,11.1340505 -2.54085,17.9600005 -0.0106,4.0946621 0.1959,4.8964995 1.39947,5.4334311 1.19065,0.5311727 3.03697,0.2950547 3.59664,-0.4599604 z m 24.32964,1.9731961 c -0.42555,-0.4255492 -0.19651,-2.9657705 0.58667,-6.5066668 0.8774,-3.9668733 1.05111,-8.50265 0.46417,-12.1199172 -0.18205,-1.1219543 -0.249,-2.1219183 -0.14878,-2.2221413 0.35056,-0.350564 5.102646,-0.03216 5.351006,0.358531 0.383382,0.603096 0.29414,11.52715956 -0.11504,14.0818863 -0.281054,1.7547677 -0.631736,2.6656066 -1.475936,3.8334721 -1.38441,1.9151908 -3.92087,3.3160566 -4.66209,2.5748359 z m 3.26364,-3.4846386 c 1.24588,-1.583891 1.45406,-2.9192642 1.46884,-9.4220283 l 0.0142,-6.2400004 -1.06264,-0.032 c -0.98765,-0.02974 -1.04801,0.02629 -0.85532,0.79405 0.11403,0.4543274 0.19428,2.674955 0.17834,4.9347282 -0.0266,3.77041742 -0.23897,5.31619245 -1.47277,10.7199972 -0.14806,0.6484943 -0.0933,0.6966648 0.45727,0.4020227 0.34402,-0.1841137 0.91646,-0.7046599 1.27209,-1.1567694 z m -48.82118,2.9779719 c -0.16641,-0.22 -0.3205,-0.7426916 -0.34242,-1.1615367 -0.0219,-0.4188452 -0.3354,-1.0761262 -0.69661,-1.4606245 -0.36122,-0.3844982 -0.66028,-1.1218067 -0.66458,-1.6384633 -0.004,-0.5166566 -0.13926,-1.5153756 -0.2999,-2.2193756 -0.16064,-0.7040001 -0.36827,-1.85600005 -0.4614,-2.56000006 -0.0931,-0.70400004 -0.33541,-1.92800004 -0.53841,-2.72000004 -0.20301,-0.792 -0.41436,-1.8000001 -0.46968,-2.2400001 -0.0553,-0.44 -0.25065,-1.376 -0.43406,-2.08 -0.68367,-2.6242643 -0.54424,-2.9882913 1.49127,-3.8933323 1.57846,-0.701827 2.56394,-0.860903 6.93325,-1.119157 3.54809,-0.209716 5.34406,-0.196878 5.92,0.04232 1.09244,0.453709 2.26777,2.214611 2.26266,3.3899718 -0.011,2.5193632 -4.36549,13.3716698 -6.30387,15.7103799 -1.17658,1.4195682 -2.98873,2.3498189 -4.57751,2.3498189 -0.83823,0 -1.65146,-0.1788556 -1.81874,-0.400001 z m 3.5626,-1.8266459 c 1.43552,-0.8872009 2.74608,-2.8775387 4.32828,-6.57335425 2.08104,-4.86104725 3.30891,-8.98347945 2.90213,-9.74356415 -0.76483,-1.4290883 -1.54294,-1.6412323 -5.2888,-1.4419433 -4.06552,0.216294 -6.54974,0.633457 -7.37774,1.238905 -0.56071,0.4100031 -0.55647,0.5405699 0.11653,3.5860488 0.38414,1.7383045 0.84757,4.4565536 1.02987,6.04055364 0.55691,4.83925866 1.55619,7.52000016 2.80316,7.52000016 0.25995,0 0.92891,-0.2819907 1.48657,-0.6266459 z m 33.82766,1.3401743 c -2.0174,-0.1049688 -2.03262,-0.1128593 -1.8704,-0.9696792 0.09,-0.4751171 0.38795,-1.4625738 0.66221,-2.1943482 0.82673,-2.2058342 1.16276,-5.07510087 1.36199,-11.6295013 0.1571,-5.1686373 0.0978,-6.6520633 -0.34567,-8.6400003 -0.29444,-1.32 -0.61704,-2.94 -0.7169,-3.6 -0.1745,-1.153412 -0.14539,-1.2 0.74992,-1.2 1.84027,0 4.1132,2.924914 5.7194,7.36 1.26136,3.4829365 1.46732,10.0391284 0.48712,15.50668 -0.37732,2.1046738 -0.84692,4.0205357 -1.04356,4.2574709 -0.81667,0.984029 -2.07059,1.2620144 -5.00411,1.1093781 z m 3.27473,-2.0852797 c 0.39834,-0.2912709 0.75095,-1.4850976 1.20508,-4.08 1.26668,-7.2378537 0.42286,-13.7983943 -2.30094,-17.8892843 l -0.9714,-1.458965 0.25324,1.28 c 0.13928,0.704 0.22839,4.592 0.19803,8.6400003 -0.0511,6.8189998 -0.37618,10.2616939 -1.24624,13.2000002 -0.19561,0.6605966 -0.10956,0.72 1.04297,0.72 0.69088,0 1.50955,-0.185288 1.81926,-0.4117512 z m -50.4401,-22.6003363 c -0.58387,-0.512648 -2.78489,-3.498921 -4.89114,-6.636163 l -3.82954,-5.704076 -0.10428,-2.883837 c -0.16181,-4.47454 0.75088,-8.06533 3.12319,-12.287613 2.28932,-4.074577 3.24118,-6.276443 5.17866,-11.979475 0.34815,-1.024788 1.29783,-3.040788 2.11039,-4.480001 0.81257,-1.439212 2.09787,-3.876749 2.85622,-5.416749 1.1904,-2.417356 1.48931,-2.8 2.18732,-2.8 0.44468,0 0.8085,0.159213 0.8085,0.353806 0,0.194593 0.36,0.781642 0.8,1.304552 0.44,0.522911 0.80089,1.191698 0.80197,1.486194 0.001,0.294496 0.19356,0.902575 0.42773,1.351285 0.23417,0.44871 0.5169,1.81671 0.62829,3.04 0.11138,1.22329 0.84131,4.240163 1.62206,6.704163 2.47015,7.795666 3.04751,9.838971 3.70205,13.10179 0.377,1.879317 0.82728,3.287562 1.09999,3.440177 0.56039,0.31361 0.94218,2.339055 0.90457,4.798836 -0.0245,1.604 -0.21114,2.108181 -1.56725,4.234327 -0.84668,1.327438 -2.10202,3.316077 -2.78966,4.419198 -4.20125,6.7397 -4.46823,7.022083 -7.74261,8.18945 -2.7224,0.970577 -4.01773,0.913218 -5.32646,-0.235864 z m 4.87147,-1.508865 c 2.37951,-0.882001 3.97966,-2.324828 4.39074,-3.959048 0.25148,-0.999745 1.68063,-3.2 2.07852,-3.2 0.163,0 0.21669,-0.128911 0.11931,-0.286469 -0.0974,-0.157558 0.0531,-0.374772 0.33432,-0.482698 0.30083,-0.115439 0.43333,-0.399582 0.32183,-0.690151 -0.10425,-0.271657 -0.0632,-0.415834 0.0912,-0.320393 0.38123,0.235617 2.65113,-3.625545 2.38476,-4.056548 -0.11647,-0.188445 -0.0672,-0.253292 0.10946,-0.144105 0.89127,0.550835 1.25108,-2.371585 0.47012,-3.818286 -0.36462,-0.675426 -1.17881,-4.288487 -1.48973,-6.610826 -0.11263,-0.841211 -0.62731,-2.748941 -1.14375,-4.239399 -0.51643,-1.490459 -0.94329,-2.962195 -0.94856,-3.270525 -0.005,-0.30833 -0.5221,-2.000601 -1.14851,-3.760601 -0.62641,-1.76 -1.35586,-4.496 -1.621,-6.08 -0.53189,-3.177668 -1.33736,-6.054771 -1.91673,-6.846447 -0.3205,-0.437949 -0.47697,-0.278005 -1.06287,1.086447 -0.37788,0.88 -0.87404,1.816 -1.10259,2.08 -0.51326,0.592878 -3.50411,6.527179 -3.95131,7.84 -1.75543,5.15337 -2.70186,7.379804 -4.58889,10.795083 -2.10128,3.80306 -3.09729,6.988608 -3.3814,10.814804 -0.16265,2.190332 -0.0983,2.569331 0.70598,4.16 1.17035,2.314588 6.02369,9.477151 7.30447,10.779953 0.55684,0.566412 1.1842,1.034412 1.39413,1.04 0.20993,0.0056 1.40264,-0.368268 2.65046,-0.830791 z m 42.7767,-13.122248 c -0.67713,-0.44305 -1.54113,-0.863336 -1.92,-0.93397 -1.9941,-0.371766 -3.40885,-4.309206 -3.40885,-9.487287 0,-6.232838 1.17979,-8.474555 5.1691,-9.821766 3.76295,-1.270766 6.10236,-0.704959 8.54126,2.065774 2.0343,2.311093 2.68245,4.379015 2.85478,9.108227 0.13386,3.673704 0.0854,4.136804 -0.58156,5.555665 -1.70352,3.624086 -7.54274,5.549546 -10.65473,3.513357 z m 6.51732,-1.719948 c 1.56631,-0.799074 2.79586,-2.295821 3.06515,-3.731262 0.11923,-0.635563 0.13812,-2.539325 0.042,-4.23058 -0.25778,-4.534642 -1.78885,-7.66632 -4.39909,-8.997965 -1.51655,-0.773687 -2.58811,-0.800062 -4.65721,-0.114628 -2.18619,0.724225 -3.17089,1.74612 -3.78231,3.925203 -0.60281,2.148402 -0.68108,6.812969 -0.14069,8.384628 0.46396,1.349371 3.14071,4.411518 4.51907,5.169728 1.24775,0.686364 3.55603,0.511672 5.3531,-0.405124 z m -27.2247,1.692617 c -1.80274,-0.509165 -3.64949,-2.017849 -4.49235,-3.669991 -0.78402,-1.536805 -1.08212,-3.249253 -1.56172,-8.971186 -0.34991,-4.174695 -0.33293,-4.478202 0.4461,-7.974086 0.66895,-3.001912 1.24056,-4.494949 3.28542,-8.58145 1.36156,-2.720984 2.73331,-5.204984 3.04832,-5.52 0.74104,-0.741037 2.65673,-0.748177 3.42304,-0.01276 1.21962,1.170463 2.37153,3.492738 3.5913,7.240131 2.27882,7.00103 2.89354,9.901611 3.12806,14.759869 0.19596,4.059476 0.15051,4.698441 -0.48415,6.807127 -1.22436,4.06801 -3.14365,5.793013 -6.82044,6.130029 -1.34134,0.122947 -2.66636,0.04572 -3.56358,-0.207686 z m 4.24911,-1.51426 c 2.25295,-0.379741 3.77855,-2.264769 4.85192,-5.995028 0.99311,-3.451362 -0.0424,-10.361294 -2.84285,-18.971135 -1.18015,-3.628229 -2.18714,-5.667937 -3.29176,-6.667605 -0.6204,-0.56146 -0.65624,-0.552411 -1.26886,0.32039 -1.08128,1.540494 -3.20743,5.596512 -4.21689,8.044488 -1.93731,4.698025 -2.34492,8.851528 -1.45788,14.855787 0.56041,3.793392 2.02127,7.191734 3.35574,7.806349 1.34898,0.621301 2.69589,1.000868 3.2,0.901779 0.264,-0.05189 1.01576,-0.184654 1.67058,-0.295025 z"
         id="path6" /></g></g></svg>
