<?xml version="1.0" encoding="UTF-8" standalone="no"?>
<!-- Created with Inkscape (http://www.inkscape.org/) -->

<svg
   version="1.1"
   id="svg1"
   width="40.926224"
   height="70.645988"
   viewBox="0 0 40.926224 70.645989"
   sodipodi:docname="layer.png"
   xmlns:inkscape="http://www.inkscape.org/namespaces/inkscape"
   xmlns:sodipodi="http://sodipodi.sourceforge.net/DTD/sodipodi-0.dtd"
   xmlns="http://www.w3.org/2000/svg"
   xmlns:svg="http://www.w3.org/2000/svg">
  <defs
     id="defs1" />
  <sodipodi:namedview
     id="namedview1"
     pagecolor="#ffffff"
     bordercolor="#000000"
     borderopacity="0.25"
     inkscape:showpageshadow="2"
     inkscape:pageopacity="0.0"
     inkscape:pagecheckerboard="0"
     inkscape:deskcolor="#d1d1d1"
     showgrid="false" />
  <g
     inkscape:groupmode="layer"
     inkscape:label="Image"
     id="g1"
     transform="translate(-22.195191,-5.6835282)">
    <path
       style="fill:#a13636;fill-opacity:1;fill-rule:evenodd;stroke-width:3.77953"
       d="m 49.046023,46.486723 c -1.731755,0.224919 -3.330175,1.63855 -5.11075,1.145849 -2.439384,-0.549672 -4.978975,-1.284412 -7.4784,-0.634393 -3.547146,0.878385 -7.038708,1.988206 -10.678758,2.481234 -0.796347,-0.02728 -1.478846,0.633316 -1.327612,1.446896 -0.05241,3.256829 -0.214155,6.483357 -0.422857,9.701488 -0.0051,0.833181 0.994546,1.186164 1.655036,0.816454 1.333311,-0.422595 2.36376,-1.419797 3.615454,-1.991604 2.252991,-0.575685 4.708549,-0.299068 6.850308,-1.336471 0.976526,-0.554754 2.053408,-0.90392 3.184771,-0.904963 1.834823,-0.0939 3.667778,-0.247392 5.464729,-0.640104 1.544572,-0.290062 3.202998,-0.128916 4.661603,-0.778691 1.247487,-0.64366 1.178754,-2.227123 1.147191,-3.424388 -0.08292,-1.702671 -0.05728,-3.434193 -0.387206,-5.109382 -0.1674,-0.483735 -0.665025,-0.803204 -1.173509,-0.771925 z"
       id="path2" />
    <path
       style="fill:#c35c5c;fill-opacity:1;fill-rule:evenodd;stroke-width:3.77953"
       d="m 48.691004,40.620565 c -1.629509,0.595942 -3.137284,1.469521 -4.553347,2.464232 -1.842668,-0.605514 -3.689796,-1.671476 -5.698797,-1.310224 -4.39955,0.457272 -8.888319,0.666161 -13.256124,1.486744 -1.045695,0.298937 -0.6989,1.560203 -0.753563,2.373481 0.06371,1.005316 -0.141113,2.079739 0.22925,3.035963 0.652216,0.878285 1.78421,0.261114 2.652288,0.189449 2.295495,-0.402364 4.580041,-0.881193 6.777759,-1.671092 1.499716,-0.49033 3.023633,-1.09035 4.634917,-0.917104 2.393148,0.0757 4.733879,1.188582 7.141203,0.748629 1.261387,-0.43638 2.458714,-1.125828 3.491078,-1.969316 0.866646,-0.970996 0.69716,-2.400697 0.685705,-3.597574 -0.04259,-0.650259 -0.756095,-1.054116 -1.350369,-0.833188 z"
       id="path3" />
    <path
       style="fill:#e99090;fill-opacity:1;fill-rule:evenodd;stroke-width:3.77953"
       d="m 48.071116,24.519575 c -1.341034,0.184879 -2.381678,1.183056 -3.524404,1.831558 -0.741306,0.414124 -1.37714,1.158802 -2.301434,0.999433 -5.207793,0.267444 -10.449133,0.322365 -15.608783,1.14565 -0.784808,0.196347 -2.012385,0.105305 -2.186435,1.120566 -0.04876,4.071743 -0.0069,8.151019 -0.02089,12.22565 0.02301,0.79467 0.90082,1.180449 1.58007,0.90048 4.304602,-0.52502 8.625789,-0.941972 12.941845,-1.453504 1.025606,-0.161228 2.053932,0.02254 2.982034,0.476607 1.788931,0.734304 3.633046,-0.208375 5.209454,-1.022269 0.774687,-0.495694 1.81282,-0.710569 2.369353,-1.459319 0.285833,-1.065761 0.122901,-2.209194 0.211623,-3.307342 0.02069,-3.280711 0.09589,-6.569062 -0.08928,-9.845202 -0.0789,-0.799259 -0.68835,-1.649565 -1.563153,-1.612308 z"
       id="path4" />
    <path
       style="fill:#ffcbcb;fill-opacity:1;fill-rule:evenodd;stroke-width:3.77953"
       d="m 48.563643,9.598265 c -3.299472,2.44361 -7.384715,3.452063 -11.273933,4.457158 -4.076877,1.031312 -8.361818,1.617567 -12.114434,3.604878 -0.763045,0.589048 -0.323617,1.694893 -0.440437,2.521246 0.01774,2.345343 -0.03541,4.70004 0.02643,7.039565 0.07071,0.879172 1.089003,1.010619 1.780519,0.827574 5.432577,-0.546031 10.924498,-0.793111 16.377078,-1.221841 1.276237,-0.538531 2.323254,-1.533235 3.581933,-2.132547 1.017463,-0.593058 2.245391,-0.654495 3.267003,-1.203162 0.572041,-0.792691 0.18782,-1.841965 0.299496,-2.75139 -0.01772,-3.457497 0.03535,-6.924335 -0.02643,-10.376019 -0.05675,-0.715438 -0.860799,-1.086195 -1.477225,-0.765462 z"
       id="path5" />
    <path
       style="fill:#000000"
       d="m 22.195191,75.253478 c 0,-0.591819 0.130214,-1.124034 0.289366,-1.182701 0.166719,-0.06146 0.442958,-14.144462 0.651742,-33.226668 0.199307,-18.216001 0.43837,-33.602673 0.531251,-34.192605 0.163346,-1.037495 0.207477,-1.066254 1.348257,-0.878621 3.662542,0.602406 8.595954,0.856727 16.909551,0.8717 8.426065,0.01517 9.341408,0.06829 9.44617,0.548164 0.0638,0.292248 -0.0086,6.867361 -0.160836,14.611361 -0.213925,10.880178 -0.178966,15.498104 0.153829,20.320001 0.434446,6.29473 0.616948,32.396631 0.230895,33.023307 -0.440604,0.715228 -3.890248,0.938191 -16.360226,1.057419 l -13.039999,0.124678 z m 5.648151,-16.06779 c 0.944447,-0.720366 1.568365,-0.890793 3.898133,-1.064802 2.089772,-0.156084 3.185347,-0.417945 4.443077,-1.061972 1.325188,-0.678569 2.117321,-0.854805 3.842113,-0.854805 1.195013,0 2.673316,-0.14356 3.285119,-0.319023 0.611802,-0.175462 2.010263,-0.38394 3.10769,-0.463284 3.3897,-0.245074 3.419631,-0.286259 3.202274,-4.406415 -0.102043,-1.934306 -0.242525,-3.573911 -0.312181,-3.643568 -0.06966,-0.06966 -1.043078,0.245731 -2.163159,0.70086 -2.015835,0.819108 -2.057805,0.822367 -4.133865,0.321093 -4.234937,-1.022545 -4.809893,-1.007867 -9.052201,0.231088 -2.158833,0.630482 -4.969151,1.310748 -6.245151,1.511703 l -2.32,0.365371 -0.0015,1.491088 c -8e-4,0.820098 -0.09508,3.115995 -0.209516,5.101993 l -0.208061,3.610906 0.871383,-0.331299 c 0.479261,-0.182215 1.377371,-0.717235 1.995801,-1.188934 z m 1.292463,-11.621644 c 1.089337,-0.187587 2.817337,-0.632306 3.84,-0.988266 4.367283,-1.520127 4.924484,-1.582526 8.163348,-0.914184 3.915413,0.807948 4.203238,0.791237 6.217085,-0.36097 1.672834,-0.957099 1.718952,-1.021604 1.718952,-2.404295 V 41.47552 l -1.2,0.499101 c -0.66,0.274506 -1.741205,0.872858 -2.402677,1.329671 l -1.202678,0.830569 -2.276059,-0.840321 c -1.251833,-0.462176 -2.375108,-0.779105 -2.496167,-0.704286 -0.12106,0.07482 -2.227628,0.286997 -4.681263,0.471507 -2.453636,0.18451 -5.577155,0.505935 -6.941155,0.714277 l -2.48,0.378803 v 2.05006 2.050059 l 0.88,-0.174924 c 0.484,-0.09621 1.771276,-0.328405 2.860614,-0.515992 z m 2.339386,-6.388826 c 2.023999,-0.198003 4.873481,-0.52156 6.33218,-0.719017 2.307333,-0.312331 2.797635,-0.289649 3.770856,0.174448 1.630635,0.777596 2.507342,0.668001 4.958003,-0.619785 l 2.194629,-1.153245 0.09217,-6.687064 c 0.108027,-7.837864 0.223609,-7.656249 -3.370283,-5.295772 l -2.117341,1.390675 -5.48475,0.222648 c -5.07868,0.206163 -9.443028,0.593651 -11.575464,1.027723 l -0.88,0.179131 v 6.089584 6.089585 l 1.2,-0.169453 c 0.66,-0.0932 2.856,-0.331455 4.88,-0.529458 z m 5.119999,-14.865156 6.24,-0.400445 1.720443,-1.178331 c 0.946244,-0.648082 2.350244,-1.336916 3.12,-1.530743 L 49.07519,22.84813 v -6.241042 -6.241043 l -0.72,0.518718 c -2.545829,1.834121 -6.880909,3.30534 -14.620791,4.961934 -2.502738,0.53567 -5.330908,1.331259 -6.284821,1.767975 l -1.734387,0.794029 v 4.383655 4.383656 l 2.32,-0.232753 c 1.276,-0.128014 5.128,-0.412953 8.559999,-0.633197 z M 27.516423,15.087503 c 0.627372,-0.262133 2.962747,-0.85161 5.189722,-1.30995 C 40.032873,12.269621 45.978471,10.291424 46.701864,9.120949 46.87521,8.840469 46.402769,8.80003 44.832349,8.960924 42.865101,9.162474 28.530272,8.697469 26.595191,8.369332 l -0.88,-0.149225 v 3.672001 c 0,2.310846 0.122429,3.672 0.330278,3.672 0.181652,0 0.843582,-0.214473 1.470954,-0.476605 z m 28.669969,55.338462 c -0.391161,-0.27398 -0.711202,-0.762574 -0.711202,-1.085764 0,-0.803236 0.933921,-1.098884 1.591475,-0.503806 0.729652,0.660326 1.36247,0.61337 2.36537,-0.175511 1.019813,-0.802185 1.113816,-2.133807 0.227401,-3.221323 l -0.615754,-0.755451 -1.126731,0.600958 c -1.72309,0.919035 -1.993886,0.627181 -2.22737,-2.400571 -0.112726,-1.461802 -0.09706,-2.765716 0.03481,-2.897586 0.13187,-0.131871 1.821747,-0.280948 3.755282,-0.331283 3.46887,-0.0903 3.515519,-0.08188 3.515519,0.635189 0,0.691902 -0.134752,0.732142 -2.813533,0.8402 -1.547444,0.06242 -2.862376,0.167403 -2.922072,0.233293 -0.0597,0.06589 -0.03615,0.595406 0.05233,1.176703 0.148113,0.973074 0.233368,1.040981 1.074881,0.856154 1.425604,-0.313115 2.216084,0.115839 2.870853,1.557867 0.728679,1.604805 0.774402,2.817515 0.151633,4.021817 -0.866272,1.675187 -3.755604,2.476844 -5.222894,1.449114 z m 2.488798,-15.22399 v -1.322134 l -1.300664,0.174456 c -1.492894,0.200239 -1.451411,0.266008 -1.722051,-2.730188 -0.191803,-2.123403 -0.182036,-2.16 0.576481,-2.16 0.819499,0 1.153658,0.667246 1.161865,2.32 0.0035,0.710608 0.149989,0.88 0.760869,0.88 0.667333,0 0.752198,-0.141441 0.72,-1.2 -0.03085,-1.014158 0.075,-1.215836 0.6835,-1.302256 0.539485,-0.07662 0.72,0.05722 0.72,0.533828 0,1.301551 0.348575,1.648428 1.656493,1.648428 1.131948,0 1.257046,0.07726 1.165763,0.72 -0.08011,0.564071 -0.344208,0.742964 -1.21946,0.826033 -1.300375,0.123418 -1.591178,0.468103 -1.597896,1.893967 -0.0042,0.894694 -0.116674,1.04 -0.8049,1.04 -0.724249,0 -0.8,-0.125191 -0.8,-1.322134 z m -1.191984,-7.978031 c -1.475121,-0.308357 -2.736795,-1.206916 -2.513112,-1.789827 0.101803,-0.265294 0.185096,-0.542575 0.185096,-0.61618 0,-0.35488 1.250937,-0.07442 1.61279,0.361583 0.287393,0.346288 0.853042,0.466691 1.879182,0.4 1.330861,-0.0865 1.477388,-0.176592 1.568206,-0.96425 0.104004,-0.902018 -0.1561,-1.054916 -2.180178,-1.281576 -1.221258,-0.136758 -1.284675,-1.584934 -0.09561,-2.183394 0.885101,-0.445475 0.873079,-0.452733 -1.024388,-0.618478 -1.650762,-0.144195 -1.92,-0.257459 -1.92,-0.807713 0,-0.564211 0.246316,-0.651718 2.08,-0.738948 3.03214,-0.144242 4.16,0.125921 4.16,0.996473 0,0.389689 -0.296344,0.893595 -0.658542,1.119791 -0.647917,0.404631 -0.642754,0.426016 0.32,1.325363 0.768496,0.717883 0.978542,1.182507 0.978542,2.164547 0,0.687748 -0.188534,1.508287 -0.418965,1.823419 -0.504446,0.689872 -2.550396,1.106573 -3.973019,0.80919 z M 54.19519,35.755372 c 0,-0.379794 0.785097,-1.616 1.744659,-2.747124 0.959562,-1.131124 1.977981,-2.507785 2.263153,-3.059247 0.965424,-1.866924 -0.214237,-2.593312 -1.778198,-1.094942 -0.933154,0.894018 -1.909614,0.795509 -1.909614,-0.192651 0,-0.776485 2.137101,-2.2173 3.288829,-2.2173 1.141339,0 2.471171,1.295026 2.471171,2.406492 0,1.015688 -0.406826,1.834855 -1.744925,3.513508 -1.688708,2.118494 -1.711424,2.064255 0.777143,1.855623 2.23418,-0.187306 2.247782,-0.183608 2.247782,0.61101 0,0.763395 -0.10808,0.808593 -2.396025,1.001995 -1.317814,0.111396 -2.973814,0.29493 -3.68,0.407854 -1.165393,0.186354 -1.283975,0.141541 -1.283975,-0.485218 z m 3.2,-19.614038 v -3.262773 l -1.129743,1.09499 c -0.898698,0.871053 -1.238383,1.026464 -1.660954,0.759912 -0.292166,-0.184293 -0.577686,-0.474504 -0.634489,-0.644914 -0.15776,-0.473281 4.272678,-3.987529 4.78113,-3.792417 0.350647,0.134556 0.423105,0.92506 0.344565,3.759181 -0.0547,1.973837 -0.09969,3.984795 -0.09998,4.468795 -4.34e-4,0.725193 -0.141261,0.88 -0.800527,0.88 h -0.8 z"
       id="path1" />
  </g>
</svg>
